<svg xmlns="http://www.w3.org/2000/svg" xmlns:xlink="http://www.w3.org/1999/xlink" viewBox="0 0 32 32"><defs><style>.cls-1{fill:url(#linear-gradient);}.cls-2{fill:url(#linear-gradient-2);}</style><linearGradient id="linear-gradient" x1="11.43" y1="8.52" x2="11.43" y2="30.29" gradientUnits="userSpaceOnUse"><stop offset="0.01" stop-color="#09bafd"/><stop offset="0.48" stop-color="#2291fa"/><stop offset="1" stop-color="#4957f5"/></linearGradient><linearGradient id="linear-gradient-2" x1="13.34" y1="6.99" x2="23.1" y2="29.47" gradientUnits="userSpaceOnUse"><stop offset="0" stop-color="#09bafd"/><stop offset="0.24" stop-color="#30b2bf"/><stop offset="0.46" stop-color="#83d885"/><stop offset="0.91" stop-color="#c2f457"/></linearGradient></defs><g id="Option_A_Colors_1" data-name="Option A_Colors 1"><path class="cls-1" d="M15.47,20V30.53a.38.38,0,1,1-.75,0V19.86Q15.1,19.94,15.47,20Zm-1.6-.35a4.12,4.12,0,0,1-.64-.3v11.2a.38.38,0,1,0,.75,0V19.67ZM11.74,18V30.53a.38.38,0,1,0,.75,0V18.8A6.32,6.32,0,0,1,11.74,18ZM11,12.08v.14c0,.36,0,.71,0,1.06V12.13A.09.09,0,0,0,11,12.08Zm-.74,1.17V30.53a.38.38,0,1,0,.75,0V16.78l0-.07A7.79,7.79,0,0,1,10.21,13.25ZM11.1,2.08a.75.75,0,0,0-.75.75.77.77,0,0,0,.06.3L9.23,4.7l-.5-1.4a.71.71,0,0,0,.17-.47.75.75,0,0,0-1.5,0A.75.75,0,0,0,8,3.57l.69,1.92v25a.38.38,0,1,0,.75,0V5.63l1.54-2h.09a.75.75,0,0,0,0-1.5Z"/><path class="cls-2" d="M22.63,30.91a.37.37,0,0,1-.37-.38V23.89a10.52,10.52,0,0,0-.28-3,5.06,5.06,0,0,0-2.07-2.71,6,6,0,0,0-2.37-.92l-.47-.07a5.35,5.35,0,0,1-2.28-.69c-1.56-1-1.56-2.84-1.56-4.3V5A.38.38,0,1,1,14,5v7.19c0,1.42,0,2.89,1.22,3.67a4.82,4.82,0,0,0,2,.58l.48.07a6.67,6.67,0,0,1,2.67,1,5.75,5.75,0,0,1,2.37,3.12A11.05,11.05,0,0,1,23,23.89v6.64A.38.38,0,0,1,22.63,30.91Zm-1.11-.38V24.6a11.93,11.93,0,0,0-.25-3.18,4.3,4.3,0,0,0-2.57-3,8.69,8.69,0,0,0-2.31-.49l-.75-.11a3.88,3.88,0,0,1-2.45-1.58c-.7-.95-.7-2.69-.7-4.09V4.48a.38.38,0,1,0-.75,0v7.65c0,1.59,0,3.38.84,4.53a4.62,4.62,0,0,0,2.94,1.88l.77.11a8.59,8.59,0,0,1,2.09.43,3.54,3.54,0,0,1,2.17,2.55,11.42,11.42,0,0,1,.22,3v5.93a.38.38,0,1,0,.75,0Zm2.77-9.82A8.63,8.63,0,0,0,22,17a9.61,9.61,0,0,0-3.07-1.75,8.59,8.59,0,0,0-2.11-.38,1.32,1.32,0,0,1-.71-.15c-.51-.32-.53-.86-.51-2.07V5.06l1.54-1.83h.09a.76.76,0,1,0-.75-.76.65.65,0,0,0,.06.29l-1.34,1.6L14,3.26l.41-.66h0a.76.76,0,0,0,0-1.51.75.75,0,0,0-.75.75.7.7,0,0,0,.1.38l-.31.5-.92-.91a.38.38,0,0,0-.53.54l2.79,2.73v7.6c0,1.21,0,2.17.87,2.72a2.05,2.05,0,0,0,1.06.26,7.18,7.18,0,0,1,1.94.35,8.75,8.75,0,0,1,2.79,1.59,8,8,0,0,1,2.1,3.32,10.86,10.86,0,0,1,.27,3v6.64a.38.38,0,1,0,.75,0V23.89A11.05,11.05,0,0,0,24.29,20.71Zm-5.44-.51a5.32,5.32,0,0,0-2.93-.93,7.28,7.28,0,0,1-1.79-.34,4.93,4.93,0,0,1-2.54-2.56A6.93,6.93,0,0,1,11,13.28c0-.35,0-.7,0-1.06v-.14c0-.63,0-3.7,0-5a.75.75,0,1,0-.75,0c0,1.08,0,4.6,0,5.09v.08c0,.35,0,.7,0,1a7.79,7.79,0,0,0,.71,3.46l0,.07A8.1,8.1,0,0,0,11.74,18a6.32,6.32,0,0,0,.75.79,4.58,4.58,0,0,0,.74.53,4.12,4.12,0,0,0,.64.3l.11,0a3.83,3.83,0,0,0,.74.19q.38.08.75.12l.37,0a4.73,4.73,0,0,1,2.55.76A3,3,0,0,1,19.34,23l-.11,7.56a.37.37,0,0,0,.37.38h0a.38.38,0,0,0,.38-.37L20.09,23v0A3.63,3.63,0,0,0,18.85,20.2Z"/></g></svg>